ffmpeg started on 2025-06-06 at 17:59:48
Report written to "D:\Convert\FFMetrics\reports\psnr_report-6.txt"
Log level: 32
Command line:
ffmpeg -hide_banner -nostdin -i "G:\\\xc0\xed\xe8\xec\xe5\\\xce\xed\xe3\xee\xe8\xed\xe3\xe8\\!_36_\xce\xf1\xe5\xed\xfc_2024\\DreamCast\\\xcf\xee\xe2\xe5\xeb\xe8\xf2\xe5\xeb\xfc \xe4\xe5\xec\xee\xed\xee\xe2 2099\\[DC] Maou 2099 - 10_Telegram_HEVC.mkv" -i "G:\\\xc0\xed\xe8\xec\xe5\\\xce\xed\xe3\xee\xe8\xed\xe3\xe8\\!_36_\xce\xf1\xe5\xed\xfc_2024\\DreamCast\\\xcf\xee\xe2\xe5\xeb\xe8\xf2\xe5\xeb\xfc \xe4\xe5\xec\xee\xed\xee\xe2 2099\\[DC] Maou 2099 - 10_Telegram.mp4" -lavfi "[0:v]settb=AVTB,setpts=PTS-STARTPTS,format=pix_fmts=yuv420p10,fps=24000/1001,scale=1920:1080:flags=bicubic[main];[1:v]settb=AVTB,setpts=PTS-STARTPTS,format=pix_fmts=yuv420p,fps=24000/1001,scale=1920:1080:flags=bicubic[ref];[main][ref]psnr=eof_action=endall:stats_file='D\\:/Convert/FFMetrics/logs/psnr_logfile-6.txt'" -f null -
Input #0, matroska,webm, from 'G:\Аниме\Онгоинги\!_36_Осень_2024\DreamCast\Повелитель демонов 2099\[DC] Maou 2099 - 10_Telegram_HEVC.mkv':
  Metadata:
    COMPATIBLE_BRANDS: isomiso2avc1mp41
    MAJOR_BRAND     : isom
    MINOR_VERSION   : 512
    ENCODER         : Lavf61.7.100
  Duration: 00:23:46.65, start: -0.021000, bitrate: 1555 kb/s
  Stream #0:0: Video: hevc (Main 10), yuv420p10le(tv, bt709, progressive), 1920x1080 [SAR 1:1 DAR 16:9], 23.98 fps, 23.98 tbr, 1k tbn (default)
      Metadata:
        HANDLER_NAME    : VideoHandler
        VENDOR_ID       : [0][0][0][0]
        ENCODER         : Lavc61.19.100 libx265
        BPS             : 1357983
        DURATION        : 00:23:46.549708333
        NUMBER_OF_FRAMES: 34203
        NUMBER_OF_BYTES : 242153762
        _STATISTICS_WRITING_APP: mkvpropedit v66.0.0 ('Josie') 64-bit
        _STATISTICS_WRITING_DATE_UTC: 2025-06-02 16:08:59
        _STATISTICS_TAGS: BPS DURATION NUMBER_OF_FRAMES NUMBER_OF_BYTES
  Stream #0:1: Audio: aac (LC), 48000 Hz, stereo, fltp (default)
      Metadata:
        HANDLER_NAME    : SoundHandler
        VENDOR_ID       : [0][0][0][0]
        ENCODER         : Lavc61.19.100 aac
        BPS             : 193155
        DURATION        : 00:23:46.645000000
        NUMBER_OF_FRAMES: 66875
        NUMBER_OF_BYTES : 34445470
        _STATISTICS_WRITING_APP: mkvpropedit v66.0.0 ('Josie') 64-bit
        _STATISTICS_WRITING_DATE_UTC: 2025-06-02 16:08:59
        _STATISTICS_TAGS: BPS DURATION NUMBER_OF_FRAMES NUMBER_OF_BYTES
Input #1, mov,mp4,m4a,3gp,3g2,mj2, from 'G:\Аниме\Онгоинги\!_36_Осень_2024\DreamCast\Повелитель демонов 2099\[DC] Maou 2099 - 10_Telegram.mp4':
  Metadata:
    major_brand     : isom
    minor_version   : 512
    compatible_brands: isomiso2avc1mp41
    encoder         : Lavf61.1.100
  Duration: 00:23:46.62, start: 0.000000, bitrate: 3283 kb/s
  Stream #1:0[0x1](und): Video: h264 (High) (avc1 / 0x31637661), yuv420p(tv, bt709, progressive), 1920x1080 [SAR 1:1 DAR 16:9], 3135 kb/s, 23.98 fps, 23.98 tbr, 24k tbn (default)
      Metadata:
        handler_name    : VideoHandler
        vendor_id       : [0][0][0][0]
        encoder         : Lavc61.3.100 h264_qsv
  Stream #1:1[0x2](und): Audio: aac (HE-AACv2) (mp4a / 0x6134706D), 48000 Hz, stereo, fltp, 144 kb/s (default)
      Metadata:
        handler_name    : SoundHandler
        vendor_id       : [0][0][0][0]
Stream mapping:
  Stream #0:0 (hevc) -> settb:default
  Stream #1:0 (h264) -> settb:default
  psnr:default -> Stream #0:0 (wrapped_avframe)
  Stream #0:1 -> #0:1 (aac (native) -> pcm_s16le (native))
Output #0, null, to 'pipe:':
  Metadata:
    COMPATIBLE_BRANDS: isomiso2avc1mp41
    MAJOR_BRAND     : isom
    MINOR_VERSION   : 512
    encoder         : Lavf61.7.100
  Stream #0:0: Video: wrapped_avframe, yuv420p10le(tv, bt709, progressive), 1920x1080 [SAR 1:1 DAR 16:9], q=2-31, 200 kb/s, 23.98 fps, 23.98 tbn
      Metadata:
        encoder         : Lavc61.19.100 wrapped_avframe
  Stream #0:1: Audio: pcm_s16le, 48000 Hz, stereo, s16, 1536 kb/s (default)
      Metadata:
        HANDLER_NAME    : SoundHandler
        VENDOR_ID       : [0][0][0][0]
        _STATISTICS_TAGS: BPS DURATION NUMBER_OF_FRAMES NUMBER_OF_BYTES
        BPS             : 193155
        DURATION        : 00:23:46.645000000
        NUMBER_OF_FRAMES: 66875
        NUMBER_OF_BYTES : 34445470
        _STATISTICS_WRITING_APP: mkvpropedit v66.0.0 ('Josie') 64-bit
        _STATISTICS_WRITING_DATE_UTC: 2025-06-02 16:08:59
        encoder         : Lavc61.19.100 pcm_s16le
frame=  181 fps=0.0 q=-0.0 size=N/A time=00:00:07.54 bitrate=N/A speed=14.4x    frame=  326 fps=314 q=-0.0 size=N/A time=00:00:13.59 bitrate=N/A speed=13.1x    frame=  455 fps=292 q=-0.0 size=N/A time=00:00:18.97 bitrate=N/A speed=12.2x    frame=  640 fps=307 q=-0.0 size=N/A time=00:00:26.69 bitrate=N/A speed=12.8x    frame=  810 fps=313 q=-0.0 size=N/A time=00:00:33.78 bitrate=N/A speed=  13x    frame=  988 fps=317 q=-0.0 size=N/A time=00:00:41.20 bitrate=N/A speed=13.2x    frame= 1185 fps=326 q=-0.0 size=N/A time=00:00:49.42 bitrate=N/A speed=13.6x    frame= 1401 fps=338 q=-0.0 size=N/A time=00:00:58.43 bitrate=N/A speed=14.1x    frame= 1556 fps=334 q=-0.0 size=N/A time=00:01:04.89 bitrate=N/A speed=13.9x    frame= 1722 fps=333 q=-0.0 size=N/A time=00:01:11.82 bitrate=N/A speed=13.9x    frame= 1912 fps=336 q=-0.0 size=N/A time=00:01:19.74 bitrate=N/A speed=  14x    frame= 2097 fps=338 q=-0.0 size=N/A time=00:01:27.46 bitrate=N/A speed=14.1x    frame= 2254 fps=335 q=-0.0 size=N/A time=00:01:34.01 bitrate=N/A speed=  14x    frame= 2473 fps=342 q=-0.0 size=N/A time=00:01:43.14 bitrate=N/A speed=14.3x    frame= 2752 fps=355 q=-0.0 size=N/A time=00:01:54.78 bitrate=N/A speed=14.8x    frame= 2984 fps=361 q=-0.0 size=N/A time=00:02:04.45 bitrate=N/A speed=15.1x    frame= 3211 fps=365 q=-0.0 size=N/A time=00:02:13.92 bitrate=N/A speed=15.2x    frame= 3439 fps=369 q=-0.0 size=N/A time=00:02:23.43 bitrate=N/A speed=15.4x    frame= 3637 fps=371 q=-0.0 size=N/A time=00:02:31.69 bitrate=N/A speed=15.5x    frame= 3863 fps=374 q=-0.0 size=N/A time=00:02:41.11 bitrate=N/A speed=15.6x    frame= 4032 fps=372 q=-0.0 size=N/A time=00:02:48.16 bitrate=N/A speed=15.5x    frame= 4206 fps=370 q=-0.0 size=N/A time=00:02:55.42 bitrate=N/A speed=15.4x    frame= 4349 fps=366 q=-0.0 size=N/A time=00:03:01.38 bitrate=N/A speed=15.3x    frame= 4555 fps=367 q=-0.0 size=N/A time=00:03:09.98 bitrate=N/A speed=15.3x    frame= 4750 fps=368 q=-0.0 size=N/A time=00:03:18.11 bitrate=N/A speed=15.3x    frame= 4957 fps=369 q=-0.0 size=N/A time=00:03:26.74 bitrate=N/A speed=15.4x    frame= 5182 fps=372 q=-0.0 size=N/A time=00:03:36.13 bitrate=N/A speed=15.5x    frame= 5409 fps=374 q=-0.0 size=N/A time=00:03:45.60 bitrate=N/A speed=15.6x    frame= 5625 fps=376 q=-0.0 size=N/A time=00:03:54.60 bitrate=N/A speed=15.7x    frame= 5825 fps=376 q=-0.0 size=N/A time=00:04:02.95 bitrate=N/A speed=15.7x    frame= 6027 fps=377 q=-0.0 size=N/A time=00:04:11.37 bitrate=N/A speed=15.7x    frame= 6271 fps=380 q=-0.0 size=N/A time=00:04:21.55 bitrate=N/A speed=15.8x    frame= 6522 fps=383 q=-0.0 size=N/A time=00:04:32.02 bitrate=N/A speed=  16x    frame= 6790 fps=387 q=-0.0 size=N/A time=00:04:43.19 bitrate=N/A speed=16.1x    frame= 7062 fps=391 q=-0.0 size=N/A time=00:04:54.54 bitrate=N/A speed=16.3x    frame= 7316 fps=394 q=-0.0 size=N/A time=00:05:05.13 bitrate=N/A speed=16.4x    frame= 7572 fps=396 q=-0.0 size=N/A time=00:05:15.81 bitrate=N/A speed=16.5x    frame= 7838 fps=399 q=-0.0 size=N/A time=00:05:26.90 bitrate=N/A speed=16.7x    frame= 8092 fps=402 q=-0.0 size=N/A time=00:05:37.50 bitrate=N/A speed=16.8x    frame= 8359 fps=405 q=-0.0 size=N/A time=00:05:48.63 bitrate=N/A speed=16.9x    frame= 8621 fps=408 q=-0.0 size=N/A time=00:05:59.56 bitrate=N/A speed=  17x    frame= 8872 fps=409 q=-0.0 size=N/A time=00:06:10.03 bitrate=N/A speed=17.1x    frame= 9116 fps=411 q=-0.0 size=N/A time=00:06:20.21 bitrate=N/A speed=17.1x    frame= 9379 fps=413 q=-0.0 size=N/A time=00:06:31.18 bitrate=N/A speed=17.2x    frame= 9644 fps=415 q=-0.0 size=N/A time=00:06:42.23 bitrate=N/A speed=17.3x    frame= 9891 fps=417 q=-0.0 size=N/A time=00:06:52.53 bitrate=N/A speed=17.4x    frame=10148 fps=418 q=-0.0 size=N/A time=00:07:03.25 bitrate=N/A speed=17.4x    frame=10388 fps=419 q=-0.0 size=N/A time=00:07:13.26 bitrate=N/A speed=17.5x    frame=10570 fps=418 q=-0.0 size=N/A time=00:07:20.85 bitrate=N/A speed=17.4x    frame=10744 fps=416 q=-0.0 size=N/A time=00:07:28.11 bitrate=N/A speed=17.4x    frame=11001 fps=418 q=-0.0 size=N/A time=00:07:38.83 bitrate=N/A speed=17.4x    frame=11247 fps=419 q=-0.0 size=N/A time=00:07:49.09 bitrate=N/A speed=17.5x    frame=11517 fps=421 q=-0.0 size=N/A time=00:08:00.35 bitrate=N/A speed=17.6x    frame=11787 fps=423 q=-0.0 size=N/A time=00:08:11.61 bitrate=N/A speed=17.6x    frame=12024 fps=424 q=-0.0 size=N/A time=00:08:21.50 bitrate=N/A speed=17.7x    frame=12290 fps=425 q=-0.0 size=N/A time=00:08:32.59 bitrate=N/A speed=17.7x    frame=12533 fps=426 q=-0.0 size=N/A time=00:08:42.73 bitrate=N/A speed=17.8x    frame=12799 fps=428 q=-0.0 size=N/A time=00:08:53.82 bitrate=N/A speed=17.8x    frame=13014 fps=428 q=-0.0 size=N/A time=00:09:02.79 bitrate=N/A speed=17.8x    frame=13275 fps=429 q=-0.0 size=N/A time=00:09:13.67 bitrate=N/A speed=17.9x    frame=13534 fps=430 q=-0.0 size=N/A time=00:09:24.48 bitrate=N/A speed=17.9x    frame=13750 fps=430 q=-0.0 size=N/A time=00:09:33.48 bitrate=N/A speed=17.9x    frame=14007 fps=431 q=-0.0 size=N/A time=00:09:44.20 bitrate=N/A speed=  18x    frame=14249 fps=432 q=-0.0 size=N/A time=00:09:54.30 bitrate=N/A speed=  18x    frame=14492 fps=432 q=-0.0 size=N/A time=00:10:04.43 bitrate=N/A speed=  18x    frame=14742 fps=433 q=-0.0 size=N/A time=00:10:14.86 bitrate=N/A speed=18.1x    frame=15009 fps=434 q=-0.0 size=N/A time=00:10:26.00 bitrate=N/A speed=18.1x    frame=15269 fps=435 q=-0.0 size=N/A time=00:10:36.84 bitrate=N/A speed=18.1x    frame=15456 fps=434 q=-0.0 size=N/A time=00:10:44.64 bitrate=N/A speed=18.1x    frame=15708 fps=435 q=-0.0 size=N/A time=00:10:55.15 bitrate=N/A speed=18.1x    frame=15960 fps=436 q=-0.0 size=N/A time=00:11:05.66 bitrate=N/A speed=18.2x    frame=16215 fps=437 q=-0.0 size=N/A time=00:11:16.30 bitrate=N/A speed=18.2x    frame=16474 fps=437 q=-0.0 size=N/A time=00:11:27.10 bitrate=N/A speed=18.2x    frame=16731 fps=438 q=-0.0 size=N/A time=00:11:37.82 bitrate=N/A speed=18.3x    frame=16977 fps=439 q=-0.0 size=N/A time=00:11:48.08 bitrate=N/A speed=18.3x    frame=17246 fps=440 q=-0.0 size=N/A time=00:11:59.30 bitrate=N/A speed=18.3x    frame=17499 fps=441 q=-0.0 size=N/A time=00:12:09.85 bitrate=N/A speed=18.4x    frame=17752 fps=441 q=-0.0 size=N/A time=00:12:20.40 bitrate=N/A speed=18.4x    frame=17985 fps=441 q=-0.0 size=N/A time=00:12:30.12 bitrate=N/A speed=18.4x    frame=18239 fps=442 q=-0.0 size=N/A time=00:12:40.71 bitrate=N/A speed=18.4x    frame=18443 fps=441 q=-0.0 size=N/A time=00:12:49.22 bitrate=N/A speed=18.4x    frame=18646 fps=441 q=-0.0 size=N/A time=00:12:57.69 bitrate=N/A speed=18.4x    frame=18897 fps=441 q=-0.0 size=N/A time=00:13:08.16 bitrate=N/A speed=18.4x    frame=19157 fps=442 q=-0.0 size=N/A time=00:13:19.00 bitrate=N/A speed=18.4x    frame=19388 fps=442 q=-0.0 size=N/A time=00:13:28.64 bitrate=N/A speed=18.4x    frame=19658 fps=443 q=-0.0 size=N/A time=00:13:39.90 bitrate=N/A speed=18.5x    frame=19923 fps=444 q=-0.0 size=N/A time=00:13:50.95 bitrate=N/A speed=18.5x    frame=20188 fps=445 q=-0.0 size=N/A time=00:14:02.00 bitrate=N/A speed=18.5x    frame=20433 fps=445 q=-0.0 size=N/A time=00:14:12.22 bitrate=N/A speed=18.6x    frame=20706 fps=446 q=-0.0 size=N/A time=00:14:23.61 bitrate=N/A speed=18.6x    frame=20974 fps=447 q=-0.0 size=N/A time=00:14:34.79 bitrate=N/A speed=18.6x    frame=21224 fps=447 q=-0.0 size=N/A time=00:14:45.21 bitrate=N/A speed=18.7x    frame=21473 fps=448 q=-0.0 size=N/A time=00:14:55.60 bitrate=N/A speed=18.7x    frame=21756 fps=449 q=-0.0 size=N/A time=00:15:07.40 bitrate=N/A speed=18.7x    frame=22013 fps=449 q=-0.0 size=N/A time=00:15:18.12 bitrate=N/A speed=18.7x    frame=22282 fps=450 q=-0.0 size=N/A time=00:15:29.34 bitrate=N/A speed=18.8x    frame=22548 fps=451 q=-0.0 size=N/A time=00:15:40.43 bitrate=N/A speed=18.8x    frame=22806 fps=451 q=-0.0 size=N/A time=00:15:51.20 bitrate=N/A speed=18.8x    frame=23046 fps=451 q=-0.0 size=N/A time=00:16:01.21 bitrate=N/A speed=18.8x    frame=23306 fps=452 q=-0.0 size=N/A time=00:16:12.05 bitrate=N/A speed=18.8x    frame=23560 fps=452 q=-0.0 size=N/A time=00:16:22.64 bitrate=N/A speed=18.9x    frame=23812 fps=453 q=-0.0 size=N/A time=00:16:33.15 bitrate=N/A speed=18.9x    frame=24078 fps=453 q=-0.0 size=N/A time=00:16:44.25 bitrate=N/A speed=18.9x    frame=24359 fps=454 q=-0.0 size=N/A time=00:16:55.97 bitrate=N/A speed=18.9x    frame=24618 fps=455 q=-0.0 size=N/A time=00:17:06.77 bitrate=N/A speed=  19x    frame=24843 fps=454 q=-0.0 size=N/A time=00:17:16.16 bitrate=N/A speed=18.9x    frame=25084 fps=454 q=-0.0 size=N/A time=00:17:26.21 bitrate=N/A speed=  19x    frame=25340 fps=455 q=-0.0 size=N/A time=00:17:36.88 bitrate=N/A speed=  19x    frame=25602 fps=455 q=-0.0 size=N/A time=00:17:47.81 bitrate=N/A speed=  19x    frame=25877 fps=456 q=-0.0 size=N/A time=00:17:59.28 bitrate=N/A speed=  19x    frame=26137 fps=457 q=-0.0 size=N/A time=00:18:10.13 bitrate=N/A speed=  19x    frame=26419 fps=457 q=-0.0 size=N/A time=00:18:21.89 bitrate=N/A speed=19.1x    frame=26679 fps=458 q=-0.0 size=N/A time=00:18:32.73 bitrate=N/A speed=19.1x    frame=26924 fps=458 q=-0.0 size=N/A time=00:18:42.95 bitrate=N/A speed=19.1x    frame=27179 fps=458 q=-0.0 size=N/A time=00:18:53.59 bitrate=N/A speed=19.1x    frame=27404 fps=458 q=-0.0 size=N/A time=00:19:02.97 bitrate=N/A speed=19.1x    frame=27663 fps=458 q=-0.0 size=N/A time=00:19:13.77 bitrate=N/A speed=19.1x    frame=27885 fps=458 q=-0.0 size=N/A time=00:19:23.03 bitrate=N/A speed=19.1x    frame=28145 fps=459 q=-0.0 size=N/A time=00:19:33.88 bitrate=N/A speed=19.1x    frame=28404 fps=459 q=-0.0 size=N/A time=00:19:44.68 bitrate=N/A speed=19.1x    frame=28675 fps=459 q=-0.0 size=N/A time=00:19:55.98 bitrate=N/A speed=19.2x    frame=28950 fps=460 q=-0.0 size=N/A time=00:20:07.45 bitrate=N/A speed=19.2x    frame=29205 fps=460 q=-0.0 size=N/A time=00:20:18.09 bitrate=N/A speed=19.2x    frame=29458 fps=460 q=-0.0 size=N/A time=00:20:28.64 bitrate=N/A speed=19.2x    frame=29696 fps=460 q=-0.0 size=N/A time=00:20:38.57 bitrate=N/A speed=19.2x    frame=29936 fps=461 q=-0.0 size=N/A time=00:20:48.58 bitrate=N/A speed=19.2x    frame=30187 fps=461 q=-0.0 size=N/A time=00:20:59.04 bitrate=N/A speed=19.2x    frame=30396 fps=460 q=-0.0 size=N/A time=00:21:07.76 bitrate=N/A speed=19.2x    frame=30610 fps=460 q=-0.0 size=N/A time=00:21:16.69 bitrate=N/A speed=19.2x    frame=30870 fps=460 q=-0.0 size=N/A time=00:21:27.53 bitrate=N/A speed=19.2x    frame=31118 fps=460 q=-0.0 size=N/A time=00:21:37.87 bitrate=N/A speed=19.2x    frame=31342 fps=460 q=-0.0 size=N/A time=00:21:47.22 bitrate=N/A speed=19.2x    frame=31611 fps=461 q=-0.0 size=N/A time=00:21:58.44 bitrate=N/A speed=19.2x    frame=31870 fps=461 q=-0.0 size=N/A time=00:22:09.24 bitrate=N/A speed=19.2x    frame=32141 fps=461 q=-0.0 size=N/A time=00:22:20.54 bitrate=N/A speed=19.2x    frame=32382 fps=462 q=-0.0 size=N/A time=00:22:30.59 bitrate=N/A speed=19.3x    frame=32583 fps=461 q=-0.0 size=N/A time=00:22:38.98 bitrate=N/A speed=19.2x    frame=32783 fps=461 q=-0.0 size=N/A time=00:22:47.32 bitrate=N/A speed=19.2x    frame=32949 fps=460 q=-0.0 size=N/A time=00:22:54.24 bitrate=N/A speed=19.2x    frame=33114 fps=459 q=-0.0 size=N/A time=00:23:01.12 bitrate=N/A speed=19.1x    frame=33225 fps=457 q=-0.0 size=N/A time=00:23:05.75 bitrate=N/A speed=19.1x    frame=33323 fps=455 q=-0.0 size=N/A time=00:23:09.84 bitrate=N/A speed=  19x    frame=33428 fps=453 q=-0.0 size=N/A time=00:23:14.22 bitrate=N/A speed=18.9x    frame=33529 fps=451 q=-0.0 size=N/A time=00:23:18.43 bitrate=N/A speed=18.8x    frame=33627 fps=450 q=-0.0 size=N/A time=00:23:22.52 bitrate=N/A speed=18.7x    frame=33730 fps=448 q=-0.0 size=N/A time=00:23:26.82 bitrate=N/A speed=18.7x    frame=33983 fps=448 q=-0.0 size=N/A time=00:23:37.37 bitrate=N/A speed=18.7x    [Parsed_psnr_10 @ 0000026f3b3f11c0] PSNR y:47.240204 u:48.684095 v:48.308589 average:47.618824 min:28.801847 max:inf
[out#0/null @ 0000026f2e6b4500] video:14697KiB audio:267500KiB subtitle:0KiB other streams:0KiB global headers:0KiB muxing overhead: unknown
frame=34203 fps=449 q=-0.0 Lsize=N/A time=00:23:46.55 bitrate=N/A speed=18.7x    
